<?xml version="1.0" standalone="no"?>
<!DOCTYPE svg PUBLIC "-//W3C//DTD SVG 20010904//EN"
 "http://www.w3.org/TR/2001/REC-SVG-20010904/DTD/svg10.dtd">
<svg version="1.0" xmlns="http://www.w3.org/2000/svg"
 width="880.000000pt" height="880.000000pt" viewBox="0 0 880.000000 880.000000"
 preserveAspectRatio="xMidYMid meet">
<metadata>
Created by potrace 1.14, written by Peter Selinger 2001-2017
</metadata>
<g transform="translate(0.000000,880.000000) scale(0.100000,-0.100000)"
fill="#000000" stroke="none">
<path d="M380 6980 l0 -1820 40 -1 c22 0 74 0 115 0 41 1 83 1 93 1 45 0 184
1 190 1 4 1 9 1 12 0 13 -5 171 -3 176 1 3 3 20 2 39 -2 19 -4 37 -5 40 -2 7
7 55 9 55 2 0 -6 180 -4 186 3 3 3 20 1 39 -3 19 -4 37 -5 40 -2 7 7 55 9 55
2 0 -3 96 -4 213 -2 116 1 221 2 232 2 41 0 186 0 193 1 4 1 9 1 12 0 13 -5
171 -3 176 1 3 3 20 2 39 -2 19 -4 37 -5 40 -2 7 7 55 9 55 2 0 -3 44 -4 97
-3 54 1 116 2 138 2 22 1 102 1 178 1 75 -1 143 2 149 6 6 4 9 3 5 -2 -4 -8
59 -9 308 -5 22 1 102 1 178 1 75 -1 143 2 149 6 6 4 9 3 5 -2 -5 -9 380 -10
389 -2 6 7 6 389 0 396 -3 3 -1 11 5 18 7 8 7 14 0 18 -6 4 -7 15 -1 30 4 12
5 29 0 36 -4 7 -5 21 -2 31 4 10 5 77 2 149 -3 73 -3 133 0 135 3 2 3 38 0 80
-3 42 -3 78 0 80 3 2 3 38 0 80 -3 42 -3 78 0 80 3 2 3 38 0 80 -3 42 -4 78
-2 80 6 5 3 377 -3 383 -3 3 0 11 6 18 7 8 7 14 0 18 -6 4 -7 15 -1 30 4 12 5
29 0 36 -4 7 -5 21 -2 31 4 10 5 77 2 149 -3 73 -3 133 0 135 3 2 3 38 0 80
-3 42 -3 78 0 80 3 2 3 38 0 80 -3 42 -3 78 0 80 3 2 3 38 0 80 -3 42 -4 78
-2 80 6 5 3 377 -3 383 -3 3 0 11 6 18 7 8 7 14 0 18 -6 4 -7 15 -1 30 4 12 5
29 0 36 -4 7 -5 21 -2 31 4 10 5 77 2 149 -3 73 -3 133 0 135 3 2 3 38 0 80
-3 42 -3 78 0 80 3 2 3 26 2 54 l-4 51 -1819 0 -1819 0 0 -1820z"/>
<path d="M4837 8042 c-60 -3 -66 -5 -58 -20 5 -9 5 -25 2 -36 -4 -10 -4 -40
-1 -67 4 -27 2 -53 -3 -58 -5 -5 -5 -11 2 -15 6 -4 7 -15 1 -30 -4 -12 -5 -29
0 -36 4 -7 5 -22 1 -33 -4 -10 -4 -41 -1 -68 4 -27 4 -51 2 -54 -7 -6 -5 -125
1 -132 3 -3 2 -16 -3 -29 -6 -15 -6 -24 0 -24 6 0 6 -9 1 -23 -5 -13 -6 -30
-1 -37 4 -7 5 -22 1 -33 -4 -10 -4 -41 -1 -68 4 -27 2 -53 -3 -58 -5 -5 -5
-11 2 -15 6 -4 7 -15 1 -30 -4 -12 -5 -29 0 -36 4 -7 5 -22 1 -33 -4 -10 -4
-41 -1 -68 4 -27 4 -51 2 -54 -7 -6 -5 -125 1 -132 3 -3 2 -16 -3 -29 -6 -15
-6 -24 0 -24 6 0 6 -9 1 -23 -5 -13 -6 -30 -1 -37 4 -7 5 -22 1 -33 -4 -10 -4
-41 -1 -68 4 -27 2 -53 -3 -58 -5 -5 -5 -11 2 -15 6 -4 7 -15 1 -30 -4 -12 -5
-29 0 -36 4 -7 5 -22 1 -33 -4 -10 -4 -41 -1 -68 4 -27 4 -51 2 -54 -7 -6 -5
-125 1 -132 3 -3 2 -16 -3 -29 -6 -15 -6 -24 0 -24 6 0 6 -9 1 -23 -5 -13 -6
-30 -1 -37 4 -7 5 -22 1 -33 -4 -10 -4 -41 -1 -68 4 -27 2 -53 -3 -58 -5 -5
-5 -11 2 -15 6 -4 7 -15 1 -30 -4 -12 -5 -29 0 -36 4 -7 5 -22 1 -33 -4 -10
-4 -41 -1 -68 4 -27 4 -51 2 -54 -7 -6 -5 -125 1 -132 3 -3 2 -16 -3 -29 -6
-15 -6 -24 0 -24 6 0 6 -9 1 -23 -5 -13 -6 -30 -1 -37 4 -7 5 -22 1 -33 -4
-10 -4 -41 -1 -68 4 -27 2 -53 -3 -58 -5 -5 -5 -11 2 -15 6 -4 7 -15 1 -30 -4
-12 -5 -29 0 -36 4 -7 5 -22 1 -33 -4 -10 -4 -41 -1 -68 4 -27 4 -51 2 -54 -7
-6 -5 -125 1 -132 3 -3 2 -16 -3 -29 -6 -15 -6 -24 0 -24 6 0 6 -9 1 -23 -5
-13 -6 -30 -1 -37 4 -7 5 -22 1 -33 -4 -10 -4 -41 -1 -68 4 -27 2 -53 -3 -58
-5 -5 -5 -11 2 -15 6 -4 7 -15 1 -30 -4 -12 -5 -29 0 -36 4 -7 5 -21 2 -31 -4
-10 -5 -47 -4 -84 l4 -66 33 3 c19 1 37 -1 40 -4 4 -4 18 -3 31 2 13 5 25 6
28 1 5 -8 71 -5 86 4 6 3 10 1 10 -5 0 -7 6 -8 18 -1 11 6 24 6 34 0 10 -6 19
-6 22 0 4 6 18 6 36 1 18 -5 32 -5 35 1 4 5 14 5 25 -1 13 -7 21 -7 25 0 5 8
11 8 19 1 7 -6 16 -8 19 -5 8 8 85 9 93 1 3 -3 17 -2 30 3 13 5 25 6 28 1 5
-8 71 -5 86 4 6 3 10 1 10 -5 0 -7 6 -8 18 -1 11 6 24 6 34 0 10 -6 19 -6 22
0 4 6 18 6 36 1 18 -5 32 -5 35 1 4 5 14 5 25 -1 13 -7 21 -7 25 0 5 7 11 8
19 1 6 -5 17 -7 23 -3 13 8 81 7 90 -2 3 -3 14 -1 24 4 10 6 20 6 23 2 3 -5
26 -6 50 -2 25 4 51 3 58 -1 6 -4 20 -3 29 2 10 5 20 5 23 1 3 -5 26 -6 50 -2
25 4 51 3 58 -1 6 -4 20 -3 29 2 10 5 20 5 23 1 3 -5 26 -6 50 -2 25 4 51 3
58 -1 6 -4 20 -3 29 2 10 5 20 5 23 1 3 -5 28 -6 56 -2 28 4 53 3 56 -1 3 -5
16 -4 29 1 13 5 26 6 29 1 5 -8 71 -5 86 4 6 3 10 1 10 -5 0 -7 6 -8 18 -1 11
6 24 6 34 0 10 -6 19 -6 22 0 4 6 18 6 36 1 18 -5 32 -5 35 1 4 5 14 5 25 -1
13 -7 21 -7 25 0 5 8 11 8 19 1 7 -6 16 -8 19 -5 8 8 85 9 93 1 3 -3 17 -2 30
3 13 5 26 6 28 1 3 -4 26 -5 51 -1 25 4 48 3 51 -1 2 -5 16 -4 29 1 13 5 26 6
29 1 5 -8 71 -5 86 4 6 3 10 1 10 -5 0 -7 6 -8 18 -1 11 6 24 6 34 0 10 -6 19
-6 22 0 4 6 18 6 36 1 18 -5 32 -5 35 1 4 5 14 5 25 -1 13 -7 21 -7 25 0 5 8
11 8 19 1 7 -6 16 -8 19 -5 8 8 85 9 93 1 3 -3 17 -2 30 3 13 5 26 5 28 1 3
-5 23 -5 45 -1 22 4 45 4 52 -1 7 -4 21 -3 30 2 10 5 20 5 23 1 3 -5 26 -6 50
-2 25 4 51 3 58 -1 6 -4 20 -3 29 2 10 5 20 5 23 1 3 -5 26 -6 50 -2 25 4 51
3 58 -1 6 -4 20 -3 29 2 10 5 20 5 23 1 3 -5 26 -6 50 -2 25 4 51 3 58 -1 6
-4 19 -4 29 1 9 5 19 7 22 3 8 -7 97 -10 97 -2 0 3 14 4 30 1 l30 -4 0 1821 0
1821 -42 1 c-24 1 -46 1 -50 0 -12 -1 -61 -2 -108 0 -25 1 -49 0 -55 -1 -5 -1
-14 -1 -20 0 -24 4 -195 1 -204 -4 -5 -4 -12 -2 -15 2 -3 5 -26 6 -51 2 -24
-4 -47 -5 -49 -2 -7 7 -416 8 -416 0 0 -3 -12 -3 -26 1 -14 3 -53 4 -85 1 -33
-3 -61 -4 -64 -2 -6 7 -465 7 -465 0 0 -3 -12 -3 -26 1 -14 3 -53 4 -85 1 -33
-3 -62 -4 -64 -1 -3 2 -26 4 -52 3 -136 -2 -202 -2 -243 -1 -25 1 -49 0 -55
-1 -5 -1 -14 -1 -20 0 -24 4 -195 1 -204 -4 -5 -4 -12 -2 -15 2 -3 5 -26 6
-51 2 -24 -4 -47 -5 -49 -2 -8 7 -256 8 -256 0 0 -3 -12 -3 -26 1 -14 3 -53 4
-85 1 -33 -3 -62 -4 -64 -2 -6 7 -305 7 -305 0 0 -3 -12 -3 -26 1 -14 3 -53 4
-85 1 -33 -3 -62 -4 -64 -2 -6 6 -75 8 -158 4z"/>
<path d="M398 4402 c-17 -3 -18 -98 -18 -1823 l0 -1820 38 0 c20 1 46 0 57 -1
11 0 43 0 70 1 28 2 55 2 60 1 6 -1 96 -1 200 0 105 1 197 1 205 1 53 -3 132
-1 139 4 5 3 12 2 15 -3 5 -8 79 -7 103 2 7 3 13 2 13 -2 0 -4 27 -5 61 -2 33
3 62 3 64 0 4 -7 82 -3 102 4 7 3 13 2 13 -2 0 -4 115 -7 255 -7 140 0 255 3
255 7 0 3 12 3 26 -1 14 -3 53 -4 85 -1 33 3 62 4 64 2 7 -7 145 -7 145 0 0 3
12 3 26 -1 14 -3 53 -4 85 -1 33 3 62 4 64 2 7 -7 145 -7 145 0 0 3 12 3 26
-1 14 -3 53 -4 85 -1 33 3 62 4 64 2 7 -7 145 -7 145 0 0 3 12 3 26 -1 14 -3
53 -4 85 -1 33 3 62 4 64 2 2 -3 91 -4 197 -2 106 1 200 1 208 1 53 -3 132 -1
139 4 5 3 12 2 15 -3 5 -8 79 -7 103 2 7 3 13 2 13 -2 0 -4 27 -5 60 -2 34 3
63 4 66 1 13 -13 44 -6 50 12 7 23 7 138 -1 145 -3 3 0 11 6 18 7 8 7 14 0 18
-6 4 -7 15 -1 30 4 12 4 29 0 36 -5 8 -6 18 -4 22 7 11 6 349 -1 356 -2 3 0
11 6 18 7 8 7 14 0 18 -6 4 -7 15 -1 30 4 12 5 29 0 36 -4 7 -5 21 -2 31 4 10
5 77 2 149 -3 73 -3 133 0 135 3 2 3 38 0 80 -3 42 -4 78 -2 80 6 5 3 377 -3
383 -3 3 0 11 6 18 7 8 7 14 0 18 -6 4 -7 15 -1 30 4 12 5 29 0 36 -4 7 -5 21
-2 31 4 10 5 77 2 149 -3 73 -3 133 0 135 3 2 3 38 0 80 -3 42 -4 78 -2 80 6
5 3 377 -3 383 -3 3 0 11 6 18 7 8 7 14 0 18 -6 4 -7 15 -1 30 4 12 5 29 0 36
-4 7 -5 21 -2 31 4 10 5 77 2 149 -3 73 -3 133 0 135 3 2 3 38 0 80 -3 42 -4
78 -2 80 6 5 3 376 -3 385 -3 5 -2 11 2 13 5 3 6 28 4 57 l-3 51 -33 -3 c-19
-1 -37 1 -40 4 -4 4 -18 3 -31 -2 -13 -5 -26 -5 -28 -1 -3 5 -23 5 -45 1 -22
-4 -45 -4 -52 1 -7 4 -21 3 -30 -2 -10 -5 -20 -6 -23 -1 -5 9 -81 6 -96 -3 -6
-3 -10 -1 -10 5 0 7 -6 8 -18 1 -10 -5 -24 -6 -33 -1 -8 5 -21 5 -29 0 -7 -4
-24 -4 -36 0 -14 6 -26 5 -29 0 -4 -7 -13 -6 -25 0 -13 7 -21 7 -25 0 -5 -7
-11 -8 -19 -1 -6 5 -17 7 -23 3 -13 -8 -81 -7 -90 2 -3 3 -14 1 -24 -4 -10 -6
-20 -6 -23 -2 -3 5 -26 6 -50 2 -25 -4 -51 -3 -58 1 -6 4 -20 3 -29 -2 -10 -5
-20 -6 -23 -1 -5 9 -81 6 -96 -3 -6 -3 -10 -1 -10 5 0 7 -5 8 -17 1 -10 -5
-24 -6 -33 -1 -9 5 -22 5 -30 0 -7 -4 -24 -4 -36 0 -14 6 -26 5 -29 0 -4 -7
-13 -6 -25 0 -13 7 -21 7 -25 0 -5 -7 -11 -8 -19 -1 -6 5 -17 7 -23 3 -13 -8
-81 -7 -90 2 -3 3 -14 1 -24 -4 -10 -6 -20 -6 -23 -2 -3 5 -28 6 -56 2 -28 -4
-53 -3 -56 1 -3 5 -16 4 -29 -1 -13 -5 -27 -6 -29 -1 -3 4 -26 5 -51 1 -25 -4
-48 -3 -51 1 -2 5 -16 4 -29 -1 -13 -5 -27 -6 -29 -1 -3 4 -26 5 -51 1 -25 -4
-48 -3 -51 1 -2 5 -16 4 -29 -1 -13 -5 -27 -6 -29 -1 -3 4 -26 5 -51 1 -25 -4
-48 -3 -51 1 -2 5 -16 4 -29 -1 -13 -5 -26 -6 -29 -1 -5 8 -71 5 -86 -4 -6 -3
-10 -1 -10 5 0 7 -6 8 -18 1 -11 -6 -24 -6 -34 0 -10 6 -19 6 -22 0 -4 -6 -18
-6 -36 -1 -18 5 -32 5 -35 -1 -4 -5 -14 -5 -25 1 -13 7 -21 7 -25 0 -5 -7 -11
-8 -19 -1 -6 5 -17 7 -23 3 -13 -8 -81 -7 -90 2 -3 3 -14 1 -24 -4 -10 -6 -20
-7 -23 -2 -5 9 -81 6 -96 -3 -6 -3 -10 -1 -10 5 0 7 -6 8 -18 1 -10 -6 -24 -6
-32 -1 -8 5 -21 5 -29 0 -8 -4 -25 -4 -38 1 -13 5 -25 4 -28 -1 -4 -7 -13 -6
-25 0 -13 7 -21 7 -25 0 -5 -7 -11 -8 -19 -1 -6 5 -17 7 -23 3 -13 -8 -81 -7
-90 2 -3 3 -14 1 -24 -4 -10 -6 -20 -7 -23 -2 -5 9 -81 6 -96 -3 -6 -3 -10 -1
-10 5 0 7 -6 8 -18 1 -10 -5 -24 -6 -33 -1 -8 5 -21 5 -29 0 -7 -4 -24 -4 -36
0 -14 6 -26 5 -29 0 -4 -7 -13 -6 -25 0 -13 7 -21 7 -25 0 -5 -8 -11 -8 -19
-1 -7 6 -16 8 -19 5 -8 -8 -85 -9 -93 -1 -3 3 -17 2 -30 -3 -13 -5 -25 -6 -28
-1 -3 4 -28 5 -55 1 -28 -3 -52 -4 -53 0 -2 3 -11 4 -20 2z"/>
<path d="M4796 3642 c-9 -2 -14 -7 -11 -12 3 -5 1 -11 -4 -14 -6 -4 -6 -18 -1
-35 4 -16 6 -32 3 -35 -3 -3 -5 -40 -4 -83 1 -43 2 -85 2 -93 -2 -72 0 -124 4
-128 3 -3 0 -11 -6 -18 -7 -8 -7 -14 0 -18 6 -4 7 -15 1 -30 -4 -12 -4 -29 0
-36 5 -8 7 -18 4 -22 -6 -10 -6 -419 0 -425 3 -3 1 -16 -4 -29 -6 -15 -6 -24
0 -24 6 0 6 -9 1 -23 -5 -13 -6 -30 -1 -37 4 -7 5 -22 1 -33 -4 -10 -4 -41 -1
-68 4 -27 2 -53 -3 -58 -5 -5 -5 -11 2 -15 6 -4 7 -15 1 -30 -4 -12 -5 -29 0
-36 4 -7 5 -22 1 -33 -4 -10 -4 -41 -1 -68 4 -27 5 -51 3 -53 -4 -3 -5 -524
-2 -543 1 -4 1 -12 0 -18 -2 -5 -2 -44 -1 -85 1 -41 1 -82 1 -90 -2 -72 0
-124 4 -128 3 -3 0 -11 -6 -18 -7 -8 -7 -14 0 -18 6 -4 7 -15 1 -30 -4 -12 -4
-29 0 -36 5 -8 7 -18 4 -22 -6 -10 -6 -419 0 -425 3 -3 1 -16 -4 -29 -6 -15
-6 -24 0 -24 6 0 6 -9 1 -23 -5 -13 -6 -30 -1 -37 4 -7 5 -22 1 -33 -4 -10 -4
-41 -1 -68 4 -27 2 -53 -3 -58 -5 -5 -5 -11 2 -15 6 -4 7 -15 1 -30 -4 -12 -5
-29 0 -36 4 -7 5 -22 1 -33 -4 -10 -4 -41 -1 -68 4 -28 4 -52 1 -54 -3 -1 -5
-62 -3 -134 l3 -131 1820 0 1819 0 0 1820 0 1820 -22 1 c-45 1 -203 0 -208 -1
-3 -2 -9 -1 -15 0 -25 5 -174 2 -184 -4 -6 -4 -11 -4 -11 1 0 7 -58 8 -235 4
-22 -1 -81 0 -132 0 -50 1 -96 -2 -102 -5 -6 -4 -11 -4 -11 1 0 7 -242 9 -267
3 -5 -2 -12 -1 -18 0 -25 5 -174 2 -184 -4 -6 -4 -11 -4 -11 1 0 7 -58 8 -235
4 -22 -1 -81 0 -132 0 -50 1 -96 -2 -102 -5 -6 -4 -11 -4 -11 1 0 7 -242 9
-267 3 -5 -2 -12 -1 -18 0 -25 5 -174 2 -184 -4 -6 -4 -11 -4 -11 1 0 7 -58 8
-235 4 -22 -1 -81 0 -132 0 -50 1 -96 -2 -102 -5 -6 -4 -11 -4 -11 1 0 7 -242
9 -267 3 -5 -2 -12 -1 -18 0 -23 5 -296 2 -301 -3 -3 -3 -12 -3 -20 0 -16 6
-152 10 -178 5z"/>
</g>
</svg>
